# Blender 5.2.0 LTS
# www.blender.org
mtllib ladder.mtl
o Cube.001
v -0.231250 0.000000 0.031250
v -0.231250 2.000000 0.031250
v -0.231250 0.000000 -0.031250
v -0.231250 2.000000 -0.031250
v -0.168750 0.000000 0.031250
v -0.168750 2.000000 0.031250
v -0.168750 0.000000 -0.031250
v -0.168750 2.000000 -0.031250
v 0.168750 0.000000 0.031250
v 0.168750 2.000000 0.031250
v 0.168750 0.000000 -0.031250
v 0.168750 2.000000 -0.031250
v 0.231250 0.000000 0.031250
v 0.231250 2.000000 0.031250
v 0.231250 0.000000 -0.031250
v 0.231250 2.000000 -0.031250
v -0.200000 0.180000 0.020000
v -0.200000 0.220000 0.020000
v -0.200000 0.180000 -0.020000
v -0.200000 0.220000 -0.020000
v 0.200000 0.180000 0.020000
v 0.200000 0.220000 0.020000
v 0.200000 0.180000 -0.020000
v 0.200000 0.220000 -0.020000
v -0.200000 0.380000 0.020000
v -0.200000 0.420000 0.020000
v -0.200000 0.380000 -0.020000
v -0.200000 0.420000 -0.020000
v 0.200000 0.380000 0.020000
v 0.200000 0.420000 0.020000
v 0.200000 0.380000 -0.020000
v 0.200000 0.420000 -0.020000
v -0.200000 0.580000 0.020000
v -0.200000 0.620000 0.020000
v -0.200000 0.580000 -0.020000
v -0.200000 0.620000 -0.020000
v 0.200000 0.580000 0.020000
v 0.200000 0.620000 0.020000
v 0.200000 0.580000 -0.020000
v 0.200000 0.620000 -0.020000
v -0.200000 0.780000 0.020000
v -0.200000 0.820000 0.020000
v -0.200000 0.780000 -0.020000
v -0.200000 0.820000 -0.020000
v 0.200000 0.780000 0.020000
v 0.200000 0.820000 0.020000
v 0.200000 0.780000 -0.020000
v 0.200000 0.820000 -0.020000
v -0.200000 0.980000 0.020000
v -0.200000 1.020000 0.020000
v -0.200000 0.980000 -0.020000
v -0.200000 1.020000 -0.020000
v 0.200000 0.980000 0.020000
v 0.200000 1.020000 0.020000
v 0.200000 0.980000 -0.020000
v 0.200000 1.020000 -0.020000
v -0.200000 1.180000 0.020000
v -0.200000 1.220000 0.020000
v -0.200000 1.180000 -0.020000
v -0.200000 1.220000 -0.020000
v 0.200000 1.180000 0.020000
v 0.200000 1.220000 0.020000
v 0.200000 1.180000 -0.020000
v 0.200000 1.220000 -0.020000
v -0.200000 1.380000 0.020000
v -0.200000 1.420000 0.020000
v -0.200000 1.380000 -0.020000
v -0.200000 1.420000 -0.020000
v 0.200000 1.380000 0.020000
v 0.200000 1.420000 0.020000
v 0.200000 1.380000 -0.020000
v 0.200000 1.420000 -0.020000
v -0.200000 1.580000 0.020000
v -0.200000 1.620000 0.020000
v -0.200000 1.580000 -0.020000
v -0.200000 1.620000 -0.020000
v 0.200000 1.580000 0.020000
v 0.200000 1.620000 0.020000
v 0.200000 1.580000 -0.020000
v 0.200000 1.620000 -0.020000
v -0.200000 1.780000 0.020000
v -0.200000 1.820000 0.020000
v -0.200000 1.780000 -0.020000
v -0.200000 1.820000 -0.020000
v 0.200000 1.780000 0.020000
v 0.200000 1.820000 0.020000
v 0.200000 1.780000 -0.020000
v 0.200000 1.820000 -0.020000
vn -1.0000 -0.0000 -0.0000
vn -0.0000 -0.0000 -1.0000
vn 1.0000 -0.0000 -0.0000
vn -0.0000 -0.0000 1.0000
vn -0.0000 -1.0000 -0.0000
vn -0.0000 1.0000 -0.0000
vt 0.000000 0.555556
vt 0.000000 0.000000
vt 0.069444 0.000000
vt 0.069444 0.555556
vt 0.138889 0.000000
vt 0.138889 0.555556
vt 0.208333 0.000000
vt 0.208333 0.555556
vt 0.277778 0.000000
vt 0.277778 0.555556
vt 0.847222 0.888889
vt 0.847222 0.958333
vt 0.777778 0.958333
vt 0.777778 0.888889
vt 0.916667 0.000000
vt 0.916667 0.069444
vt 0.847222 0.069444
vt 0.847222 0.000000
vt 0.347222 0.000000
vt 0.347222 0.555556
vt 0.416667 0.000000
vt 0.416667 0.555556
vt 0.486111 0.000000
vt 0.486111 0.555556
vt 0.486111 0.555556
vt 0.486111 0.000000
vt 0.555556 0.000000
vt 0.555556 0.555556
vt 0.916667 0.069444
vt 0.916667 0.138889
vt 0.847223 0.138889
vt 0.847223 0.069444
vt 0.916667 0.138889
vt 0.916667 0.208333
vt 0.847222 0.208333
vt 0.847222 0.138889
vt 0.858334 0.252778
vt 0.847222 0.252778
vt 0.847222 0.208333
vt 0.858334 0.208333
vt 0.722223 0.444444
vt 0.711111 0.444444
vt 0.711111 -0.000000
vt 0.722223 -0.000000
vt 0.858334 0.297222
vt 0.847222 0.297222
vt 0.722222 0.888889
vt 0.711111 0.888889
vt 0.711111 0.444445
vt 0.722223 0.444445
vt 0.044444 0.555556
vt 0.044444 1.000000
vt -0.000000 1.000000
vt 0.000000 0.555556
vt 0.088889 0.555556
vt 0.088889 1.000000
vt 0.044444 1.000000
vt 0.044445 0.555556
vt 0.858334 0.341667
vt 0.847222 0.341667
vt 0.858334 0.297222
vt 0.700000 0.444444
vt 0.688889 0.444444
vt 0.688889 -0.000000
vt 0.700000 -0.000000
vt 0.858334 0.386111
vt 0.847222 0.386111
vt 0.847222 0.341667
vt 0.700000 0.888889
vt 0.688889 0.888889
vt 0.688889 0.444444
vt 0.700000 0.444444
vt 0.133333 0.555556
vt 0.133333 1.000000
vt 0.088889 1.000000
vt 0.088889 0.555556
vt 0.177778 0.555556
vt 0.177778 1.000000
vt 0.133333 1.000000
vt 0.133334 0.555556
vt 0.858333 0.430556
vt 0.847222 0.430556
vt 0.847222 0.386111
vt 0.858333 0.386111
vt 0.711111 0.444444
vt 0.700000 0.444444
vt 0.700000 -0.000000
vt 0.711111 -0.000000
vt 0.858334 0.475000
vt 0.847222 0.475000
vt 0.847222 0.430556
vt 0.858334 0.430556
vt 0.700000 0.888889
vt 0.700000 0.444444
vt 0.711111 0.444445
vt 0.222222 0.555556
vt 0.222222 1.000000
vt 0.177778 1.000000
vt 0.177778 0.555556
vt 0.266667 0.555556
vt 0.266667 1.000000
vt 0.222222 1.000000
vt 0.222222 0.555556
vt 0.858334 0.519445
vt 0.847222 0.519445
vt 0.847222 0.475000
vt 0.858334 0.475000
vt 0.733334 0.444444
vt 0.722223 -0.000000
vt 0.733334 -0.000000
vt 0.858334 0.563889
vt 0.847222 0.563889
vt 0.733334 0.888889
vt 0.722223 0.888889
vt 0.722223 0.444445
vt 0.733334 0.444445
vt 0.311111 0.555556
vt 0.311111 1.000000
vt 0.266667 1.000000
vt 0.266667 0.555556
vt 0.355556 0.555556
vt 0.355556 1.000000
vt 0.311111 1.000000
vt 0.311111 0.555556
vt 0.858334 0.608333
vt 0.847222 0.608333
vt 0.847222 0.563889
vt 0.858334 0.563889
vt 0.744445 0.444445
vt 0.733334 0.444445
vt 0.733334 0.000000
vt 0.744445 0.000000
vt 0.858334 0.652778
vt 0.847222 0.652778
vt 0.744445 0.888889
vt 0.733334 0.888889
vt 0.400000 0.555556
vt 0.400000 1.000000
vt 0.355556 1.000000
vt 0.355556 0.555556
vt 0.444445 0.555556
vt 0.444445 1.000000
vt 0.400000 1.000000
vt 0.400000 0.555556
vt 0.858333 0.697222
vt 0.847222 0.697222
vt 0.847222 0.652778
vt 0.858333 0.652778
vt 0.755556 0.444445
vt 0.755556 0.000000
vt 0.858333 0.741667
vt 0.847222 0.741667
vt 0.755556 0.888889
vt 0.488889 0.555556
vt 0.488889 1.000000
vt 0.444445 1.000000
vt 0.444445 0.555556
vt 0.533334 0.555556
vt 0.533334 1.000000
vt 0.488889 1.000000
vt 0.488889 0.555556
vt 0.858333 0.786111
vt 0.847222 0.786111
vt 0.847222 0.741667
vt 0.858333 0.741667
vt 0.766667 0.444444
vt 0.755556 0.444444
vt 0.755556 -0.000000
vt 0.766667 -0.000000
vt 0.858333 0.830556
vt 0.847222 0.830556
vt 0.766667 0.888889
vt 0.755556 0.888889
vt 0.600000 0.000000
vt 0.600000 0.444444
vt 0.555556 0.444444
vt 0.555556 -0.000000
vt 0.600000 0.444444
vt 0.600000 0.888889
vt 0.555556 0.888889
vt 0.555556 0.444444
vt 0.858334 0.875000
vt 0.847222 0.875000
vt 0.847222 0.830556
vt 0.858334 0.830556
vt 0.777778 0.444444
vt 0.766667 0.444444
vt 0.766667 -0.000000
vt 0.777778 -0.000000
vt 0.858334 0.919445
vt 0.847223 0.919445
vt 0.847223 0.875000
vt 0.858334 0.875000
vt 0.766667 0.888889
vt 0.644445 0.000000
vt 0.644445 0.444444
vt 0.600000 0.444444
vt 0.600000 -0.000000
vt 0.644445 0.444444
vt 0.644445 0.888889
vt 0.600000 0.444444
vt 0.858334 0.963889
vt 0.847223 0.963889
vt 0.847223 0.919445
vt 0.858334 0.919445
vt 0.788889 0.444444
vt 0.777778 0.444444
vt 0.777778 -0.000000
vt 0.788889 -0.000000
vt 0.927778 0.044444
vt 0.916667 0.044444
vt 0.916667 -0.000000
vt 0.927778 -0.000000
vt 0.788889 0.888889
vt 0.777778 0.888889
vt 0.688889 0.000000
vt 0.688889 0.444444
vt 0.644445 -0.000000
vt 0.688889 0.444444
vt 0.644445 0.888889
s 0
f 1/1/1 2/2/1 4/3/1 3/4/1
f 3/4/2 4/3/2 8/5/2 7/6/2
f 7/6/3 8/5/3 6/7/3 5/8/3
f 5/8/4 6/7/4 2/9/4 1/10/4
f 3/11/5 7/12/5 5/13/5 1/14/5
f 8/15/6 4/16/6 2/17/6 6/18/6
f 9/10/1 10/9/1 12/19/1 11/20/1
f 11/20/2 12/19/2 16/21/2 15/22/2
f 15/22/3 16/21/3 14/23/3 13/24/3
f 13/25/4 14/26/4 10/27/4 9/28/4
f 11/29/5 15/30/5 13/31/5 9/32/5
f 16/33/6 12/34/6 10/35/6 14/36/6
f 17/37/1 18/38/1 20/39/1 19/40/1
f 19/41/2 20/42/2 24/43/2 23/44/2
f 23/45/3 24/46/3 22/38/3 21/37/3
f 21/47/4 22/48/4 18/49/4 17/50/4
f 19/51/5 23/52/5 21/53/5 17/54/5
f 24/55/6 20/56/6 18/57/6 22/58/6
f 25/59/1 26/60/1 28/46/1 27/61/1
f 27/62/2 28/63/2 32/64/2 31/65/2
f 31/66/3 32/67/3 30/68/3 29/59/3
f 29/69/4 30/70/4 26/71/4 25/72/4
f 27/73/5 31/74/5 29/75/5 25/76/5
f 32/77/6 28/78/6 26/79/6 30/80/6
f 33/81/1 34/82/1 36/83/1 35/84/1
f 35/85/2 36/86/2 40/87/2 39/88/2
f 39/89/3 40/90/3 38/91/3 37/92/3
f 37/48/4 38/93/4 34/94/4 33/95/4
f 35/96/5 39/97/5 37/98/5 33/99/5
f 40/100/6 36/101/6 34/102/6 38/103/6
f 41/104/1 42/105/1 44/106/1 43/107/1
f 43/108/2 44/41/2 48/109/2 47/110/2
f 47/111/3 48/112/3 46/105/3 45/104/3
f 45/113/4 46/114/4 42/115/4 41/116/4
f 43/117/5 47/118/5 45/119/5 41/120/5
f 48/121/6 44/122/6 42/123/6 46/124/6
f 49/125/1 50/126/1 52/127/1 51/128/1
f 51/129/2 52/130/2 56/131/2 55/132/2
f 55/133/3 56/134/3 54/126/3 53/125/3
f 53/135/4 54/136/4 50/130/4 49/129/4
f 51/137/5 55/138/5 53/139/5 49/140/5
f 56/141/6 52/142/6 50/143/6 54/144/6
f 57/145/1 58/146/1 60/147/1 59/148/1
f 59/149/2 60/129/2 64/132/2 63/150/2
f 63/151/3 64/152/3 62/146/3 61/145/3
f 61/153/4 62/135/4 58/129/4 57/149/4
f 59/154/5 63/155/5 61/156/5 57/157/5
f 64/158/6 60/159/6 58/160/6 62/161/6
f 65/162/1 66/163/1 68/164/1 67/165/1
f 67/166/2 68/167/2 72/168/2 71/169/2
f 71/170/3 72/171/3 70/163/3 69/162/3
f 69/172/4 70/173/4 66/167/4 65/166/4
f 67/174/5 71/175/5 69/176/5 65/177/5
f 72/178/6 68/179/6 66/180/6 70/181/6
f 73/182/1 74/183/1 76/184/1 75/185/1
f 75/186/2 76/187/2 80/188/2 79/189/2
f 79/190/3 80/191/3 78/192/3 77/193/3
f 77/14/4 78/194/4 74/187/4 73/186/4
f 75/195/5 79/196/5 77/197/5 73/198/5
f 80/199/6 76/200/6 74/179/6 78/201/6
f 81/202/1 82/203/1 84/204/1 83/205/1
f 83/206/2 84/207/2 88/208/2 87/209/2
f 87/210/3 88/211/3 86/212/3 85/213/3
f 85/214/4 86/215/4 82/207/4 81/206/4
f 83/216/5 87/217/5 85/196/5 81/218/5
f 88/219/6 84/70/6 82/220/6 86/199/6
