# Blender 5.2.0 LTS
# www.blender.org
mtllib pillar_0.25x0.25.mtl
o Cube
v -0.125000 0.000000 0.125000
v -0.125000 2.000000 0.125000
v -0.125000 0.000000 -0.125000
v -0.125000 2.000000 -0.125000
v 0.125000 0.000000 0.125000
v 0.125000 2.000000 0.125000
v 0.125000 0.000000 -0.125000
v 0.125000 2.000000 -0.125000
vn -1.0000 -0.0000 -0.0000
vn -0.0000 -0.0000 -1.0000
vn 1.0000 -0.0000 -0.0000
vn -0.0000 -0.0000 1.0000
vn -0.0000 -1.0000 -0.0000
vn -0.0000 1.0000 -0.0000
vt 0.437500 0.000000
vt 0.437500 1.000000
vt 0.562500 1.000000
vt 0.562500 0.000000
vt 0.437500 0.562500
vt 0.562500 0.562500
vt 0.562500 0.437500
vt 0.437500 0.437500
s 0
f 1/1/1 2/2/1 4/3/1 3/4/1
f 3/1/2 4/2/2 8/3/2 7/4/2
f 7/4/3 8/3/3 6/2/3 5/1/3
f 5/4/4 6/3/4 2/2/4 1/1/4
f 3/5/5 7/6/5 5/7/5 1/8/5
f 8/6/6 4/5/6 2/8/6 6/7/6
