# Blender 5.2.0 LTS
# www.blender.org
mtllib rubble_2x2.mtl
o rubble
v -1.000000 0.000000 1.000000
v 1.000000 0.000000 1.000000
v -1.000000 0.000000 -1.000000
v 1.000000 0.000000 -1.000000
v -1.000000 0.000000 -0.500000
v -1.000000 0.000000 0.000000
v -1.000000 0.000000 0.500000
v -0.500000 0.000000 1.000000
v 0.000000 0.000000 1.000000
v 0.500000 0.000000 1.000000
v 1.000000 0.000000 0.500000
v 1.000000 0.000000 0.000000
v 1.000000 0.000000 -0.500000
v 0.500000 0.000000 -1.000000
v 0.000000 0.000000 -1.000000
v -0.500000 0.000000 -1.000000
v -0.436449 0.050590 0.493000
v -0.526241 0.101100 -0.021367
v -0.526241 0.101100 -0.521367
v -0.026241 0.101100 0.478633
v -0.026241 0.174975 -0.021367
v -0.067570 0.153568 -0.647219
v 0.582819 0.036527 0.438619
v 0.473759 0.101100 -0.021367
v 0.608196 0.106059 -0.528150
vn 0.1210 0.9853 -0.1210
vn -0.1050 0.9889 -0.1050
vn -0.0915 0.9492 -0.3011
vn 0.0691 0.9506 -0.3027
vn -0.0472 0.9978 0.0472
vn -0.1428 0.9878 0.0618
vn -0.2087 0.9780 -0.0000
vn -0.0526 0.9882 0.1439
vn -0.1322 0.9824 0.1322
vn -0.1325 0.9911 -0.0140
vn 0.0623 0.9897 0.1291
vn 0.1274 0.9836 0.1274
vn 0.1033 0.9946 -0.0060
vn 0.0373 0.9986 0.0373
vn 0.1398 0.9889 0.0506
vn 0.2182 0.9753 0.0339
vt 0.802354 0.753119
vt 0.998257 0.739044
vt 0.998257 0.989044
vt 0.748257 0.989044
vt -0.001743 0.739044
vt 0.235136 0.749728
vt 0.248257 0.989044
vt -0.001743 0.989044
vt 0.464471 0.812654
vt 0.498257 0.989044
vt -0.001743 -0.010956
vt 0.248257 -0.010956
vt 0.280032 0.242544
vt -0.001743 0.239044
vt 0.235136 0.499728
vt -0.001743 0.489044
vt 0.498257 -0.010956
vt 0.485136 0.249728
vt 0.485136 0.499728
vt 0.748257 -0.010956
vt 0.789666 0.269735
vt 0.735136 0.499728
vt 0.998257 -0.010956
vt 0.998257 0.239044
vt 0.998257 0.489044
s 0
f 25/1/1 13/2/1 4/3/1 14/4/1
f 5/5/2 19/6/2 16/7/2 3/8/2
f 19/6/3 22/9/3 15/10/3 16/7/3
f 22/9/4 25/1/4 14/4/4 15/10/4
f 1/11/5 8/12/5 17/13/5 7/14/5
f 7/14/6 17/13/6 18/15/6 6/16/6
f 6/16/7 18/15/7 19/6/7 5/5/7
f 8/12/8 9/17/8 20/18/8 17/13/8
f 17/13/9 20/18/9 21/19/9 18/15/9
f 18/15/10 21/19/10 22/9/10 19/6/10
f 9/17/11 10/20/11 23/21/11 20/18/11
f 20/18/12 23/21/12 24/22/12 21/19/12
f 21/19/13 24/22/13 25/1/13 22/9/13
f 10/20/14 2/23/14 11/24/14 23/21/14
f 23/21/15 11/24/15 12/25/15 24/22/15
f 24/22/16 12/25/16 13/2/16 25/1/16
