# Blender 5.2.0 LTS
# www.blender.org
mtllib window.mtl
o Plane
v -1.000000 2.000000 -0.000000
v 1.000000 2.000000 -0.000000
v -1.000000 0.000000 0.000000
v 1.000000 0.000000 0.000000
v -1.000000 0.000000 -0.125000
v -1.000000 2.000000 -0.125000
v 1.000000 2.000000 -0.125000
v 1.000000 0.000000 -0.125000
v -0.613472 0.722913 0.000000
v -0.613472 1.949858 -0.000000
v 0.613472 0.722913 0.000000
v 0.613472 1.949858 -0.000000
v -0.613472 1.949858 -0.125000
v 0.613472 1.949858 -0.125000
v 0.613472 0.722913 -0.125000
v -0.613472 0.722913 -0.125000
vn -0.0000 -0.0000 1.0000
vn -0.0000 -0.0000 -1.0000
vn -0.0000 -1.0000 -0.0000
vn -0.0000 1.0000 -0.0000
vn 1.0000 -0.0000 -0.0000
vn -1.0000 -0.0000 -0.0000
vt 0.000000 0.000000
vt 0.815033 0.000000
vt 0.815033 0.815033
vt 0.000000 0.815032
vt 0.020434 0.657516
vt 0.520434 0.657516
vt 0.520434 0.157516
vt 0.020434 0.157516
vt 0.193264 0.025071
vt 0.000000 0.000000
vt 1.000000 0.000000
vt 0.806736 0.025071
vt 1.000000 1.000000
vt 0.000000 1.000000
vt 0.193264 0.638544
vt 0.806736 0.638544
vt 0.815033 -0.000000
vt 0.865972 -0.000000
vt 0.865972 0.500000
vt 0.815033 0.500000
vt 0.916912 -0.000000
vt 0.916912 0.500000
vt 0.967851 0.000000
vt 0.967851 0.500000
vt 0.865972 0.500000
vt 0.865972 1.000000
vt 0.815033 1.000000
vt 0.815033 0.500000
s 0
usemtl 
f 1/1/1 3/2/1 4/3/1 2/4/1 12/5/1 11/6/1 9/7/1 10/8/1
f 2/4/1 1/1/1 10/8/1 12/5/1
f 13/9/2 6/10/2 7/11/2 14/12/2
f 14/12/2 7/11/2 8/13/2 5/14/2 6/10/2 13/9/2 16/15/2 15/16/2
f 4/13/3 3/14/3 5/14/3 8/13/3
f 1/10/4 2/11/4 7/11/4 6/10/4
f 2/11/5 4/13/5 8/13/5 7/11/5
f 3/14/6 1/10/6 6/10/6 5/14/6
f 13/17/5 10/18/5 9/19/5 16/20/5
f 11/21/6 12/22/6 14/19/6 15/18/6
f 16/21/4 9/23/4 11/24/4 15/22/4
f 12/25/3 10/26/3 13/27/3 14/28/3
